<svg width="60" height="60" viewBox="0 0 60 60" fill="none" xmlns="http://www.w3.org/2000/svg">
<circle cx="30" cy="30" r="29" fill="white" stroke="#FF5F00" stroke-width="2"/>
<path d="M41.326 37.4018L34.059 27.8899L28.4917 25.7219C28.4917 25.7219 24.8513 29.4878 24.4328 29.8303C23.5246 30.5733 21.798 30.1609 20.9427 29.5517C20.2894 29.0868 19.8153 28.3837 19.6064 27.6113C19.4424 27.0045 19.3443 25.9125 19.8286 25.4167C19.8347 25.4106 23.1768 21.9924 23.1768 21.9924L18.8394 21.0203L18.9113 20.7483L11.3672 18.75L7.5 33.3516L15.0445 35.3499L15.1514 34.9458L16.3666 35.8038L25.4601 44.9353C27.8571 46.0006 27.781 43.2231 27.781 43.2231L26.6396 41.7773C26.4493 40.5217 27.6669 40.8641 27.6669 40.8641L30.4824 43.7938C33.5641 44.707 32.806 41.8789 32.806 41.8789L30.1969 39.0257C30.0258 37.9101 31.3194 38.1247 31.3194 38.1247L34.858 41.6251C37.5971 42.7285 37.1027 39.8749 37.1027 39.8749L33.6783 36.3365C33.5641 35.0809 34.7438 35.3472 34.7438 35.3472L39.0052 39.4564C41.6686 40.5978 41.5544 37.7062 41.5544 37.7062L41.326 37.4018Z" fill="#FF5F00"/>
<path d="M52.5002 33.1675L48.8193 19.0293L41.2664 20.9956L41.3286 21.2338L39.6521 21.6877L32.8415 19.1008C32.8415 19.1008 32.5374 18.9867 32.1948 19.1008C31.8522 19.2149 25.7837 21.6691 25.7837 21.6691L21.4843 26.1967C21.4843 26.1967 20.5331 28.5937 23.3106 28.3655L27.591 24.2753C27.591 24.2753 28.0095 23.7046 28.8085 24.047C29.6075 24.3895 34.8788 26.4912 34.8788 26.4912C34.8788 26.4912 35.3146 26.6723 35.4288 26.8626C35.543 27.0528 42.2775 36.0701 42.2775 36.0701L44.8636 34.8123L44.9473 35.1338L52.5002 33.1675Z" fill="#FF5F00"/>
</svg>
