<svg width="48" height="48" viewBox="0 0 48 48" fill="none" xmlns="http://www.w3.org/2000/svg">
<path d="M8 0.5H40C44.1421 0.5 47.5 3.85786 47.5 8V40C47.5 44.1421 44.1421 47.5 40 47.5H8C3.85786 47.5 0.5 44.1421 0.5 40V8C0.500001 3.85786 3.85787 0.5 8 0.5Z" fill="#E6E6E6" stroke="#808080"/>
<path d="M15 36H19V19H15C13.8954 19 13 19.8954 13 21V34C13 35.1046 13.8954 36 15 36Z" fill="#808080"/>
<path d="M33.1426 12C34.2471 12 35.1426 12.8954 35.1426 14V34C35.1426 35.1046 34.2471 36 33.1426 36H29.1426V33H26.1426V36H20.1426V14C20.1426 12.8954 21.038 12 22.1426 12H33.1426ZM23.1426 30H26.1426V27H23.1426V30ZM29.1426 30H32.1426V27H29.1426V30ZM23.1426 24H26.1426V21H23.1426V24ZM29.1426 24H32.1426V21H29.1426V24ZM23.1426 18H26.1426V15H23.1426V18ZM29.1426 15V18H32.1426V15H29.1426Z" fill="#808080"/>
</svg>
